<svg xmlns="http://www.w3.org/2000/svg" viewBox="0 0 50 50"><path d="M34.8 3l8.2 7.8v34.8c0 .8-.7 1.4-1.5 1.4h-33c-.8 0-1.5-.6-1.5-1.4V4.4C7 3.6 7.7 3 8.5 3h26.3z" fill="#fff"/><path fill="#d3d5dd" d="M43 10.8h-8.2V3z"/><path d="M34.2 37l1.8.5c-.2.4-.4.8-.6 1.1-.2.3-.5.5-.7.7-.5.4-1.2.6-2.1.6-.7 0-1.2-.1-1.7-.4-.5-.2-.8-.6-1.1-1s-.5-.9-.6-1.4-.2-1.1-.2-1.6c0-.6.1-1.1.2-1.6s.3-1 .6-1.4.6-.7 1.1-1c.5-.2 1-.4 1.7-.4s1.3.2 1.9.5c.3.2.5.4.7.7s.4.7.5 1.2l-1.7.4c-.1-.4-.3-.7-.5-.9s-.5-.3-.9-.3c-.2 0-.4 0-.6.1-.2.1-.3.2-.4.4-.1.2-.2.3-.3.5s-.1.4-.2.6c0 .2-.1.4-.1.6v.6c0 .9.1 1.6.4 2.1.2.5.7.7 1.2.7.2 0 .4 0 .6-.1.2-.1.3-.1.4-.3.1-.1.2-.2.3-.4.2-.2.3-.3.3-.5zM28.5 33.7c.1.5.2 1.1.2 1.7 0 1.4-.3 2.5-.9 3.2-.6.8-1.6 1.2-2.7 1.2-.7 0-1.3-.1-1.7-.3-.5-.2-.9-.5-1.1-1-.3-.4-.5-.9-.6-1.4s-.2-1.1-.2-1.7.1-1.2.2-1.7.3-1 .6-1.4c.3-.4.7-.7 1.1-1 .5-.2 1-.3 1.7-.3s1.2.1 1.7.3.8.6 1.1 1c.2.4.4.9.6 1.4zm-1.7 1.7c0-.9-.2-1.7-.5-2.1-.3-.5-.7-.7-1.4-.7-.6 0-1.1.2-1.4.7s-.5 1.2-.5 2.1c0 .9.1 1.7.5 2.1.3.5.7.7 1.4.7.6 0 1.1-.2 1.4-.7.3-.4.5-1.2.5-2.1zM20.6 33.6c.2.5.2 1.1.2 1.8s-.1 1.3-.2 1.8c-.2.5-.4 1-.8 1.3-.7.7-1.7 1.1-3 1.1H14V31h2.9c.7 0 1.3.1 1.8.3s.9.5 1.2.9c.3.5.6.9.7 1.4zm-1.7 2.8c.1-.3.1-.7.1-1 0-.5 0-.9-.1-1.2s-.2-.6-.4-.8c-.3-.5-.9-.7-1.6-.7h-1v5.4h1c.4 0 .8-.1 1.1-.2.3-.1.5-.3.7-.6s.1-.5.2-.9z"/><path d="M20.9 22.6c0 .3.1.6.1.9 0-.2.1-.5.1-.8.1-.3.1-.6.2-.8l2.3-9.8h2.9l2.3 9.6.3 1.8c0-.6.1-1.2.2-1.8l1.9-9.7H34l-3.3 14h-3.1l-2.2-9.3c-.1-.3-.1-.6-.2-1s-.2-.8-.2-1c0 .2-.1.6-.2 1s-.1.8-.2 1L22.5 26h-3.2L16 12h2.7l2 9.8c.1.2.2.5.2.8z" fill="#2165c2"/></svg>