<svg xmlns="http://www.w3.org/2000/svg" viewBox="0 0 50 50"><path d="M38.3 45.5v1.2c0 1.3-1 2.3-2.3 2.3H8.7c-1 0-1.7-.8-1.7-1.8V5.1c0-1 .8-1.8 1.7-1.8h1.7l27.9 42.2z" fill="#d3d5dd"/><path d="M43 10.1v33.7c0 .9-.8 1.7-1.7 1.7H12.2c-.9 0-1.6-.6-1.7-1.7V2.7c0-.9.8-1.7 1.7-1.7H34l9 9.1z" fill="#fff"/><path fill="#d3d5dd" d="M34.9 1.9l8.1 8.2h-9V1zM37.9 16c.6 0 1.1.4 1.1 1 0 .5-.5 1-1.1 1H16.1c-.6 0-1.1-.5-1.1-1 0-.6.5-1 1.1-1h21.8zM37.6 21c.6 0 1.1.5 1.1 1s-.5 1-1.1 1H15.9c-.6 0-1.1-.5-1.1-1s.5-1 1.1-1h21.7zM37.6 26c.6 0 1.1.5 1.1 1s-.5 1-1.1 1H15.9c-.6 0-1.1-.5-1.1-1s.5-1 1.1-1h21.7zM37.6 31c.6 0 1.1.5 1.1 1s-.5 1-1.1 1H15.9c-.6 0-1.1-.5-1.1-1s.5-1 1.1-1h21.7zM27.9 8c.6 0 1.1.4 1.1 1 0 .5-.5 1-1.1 1H16.1c-.6 0-1.1-.5-1.1-1 0-.6.5-1 1.1-1h11.8z"/></svg>