<svg xmlns="http://www.w3.org/2000/svg" viewBox="0 0 50 50"><path d="M34.8 3l8.2 7.8v34.8c0 .8-.7 1.4-1.5 1.4h-33c-.8 0-1.5-.6-1.5-1.4V4.4C7 3.6 7.7 3 8.5 3h26.3z" fill="#fff"/><path fill="#d3d5dd" d="M43 10.8h-8.2V3z"/><path d="M34.8 21.5c1.5.9 1.3 2.4 1.1 3-.2.5-.9 1.4-2.4 1.4-.3 0-.7 0-1.1-.2-1.2-.3-2.1-.9-4.4-3.3-1.1.1-2.3.3-3.5.5-1 .2-1.9.4-2.7.7-2.7 5.3-4 5.9-4.5 6.1-.4.1-.7.2-1 .2-1.1 0-1.7-.8-2-1.2-.3-.5-.8-1.8.9-3.6.7-.7 2-2 5.2-3.1.4-.9.9-1.8 1.3-2.8.5-1.1.9-2.1 1.2-2.9-1.3-2.1-1.5-3.7-1.5-5.5 0-2.1 1.5-2.8 2.4-2.8.6 0 2.3.6 2.4 3.3 0 1.1-.1 2.3-1.1 4.8.7 1 1.5 2 2.7 3.3.4.4.7.8 1 1.1h.8c2.3 0 4.1.4 5.2 1zm-.8 2.3c.1-.3-.2-.5-.3-.6-.2-.1-1.1-.6-2.9-.7 1.2 1.1 1.6 1.3 2.1 1.4.2 0 .4.1.5.1.4 0 .6-.1.6-.2zm-7.7-3.1c-.8-.9-1.4-1.7-2-2.4v.1c-.2.5-.5 1.1-.7 1.7-.2.4-.4.8-.5 1.1h.1l-.2.1c.4-.1.7-.2 1.1-.2.8-.1 1.5-.3 2.2-.4zm-2.4-6.9c.4-1.2.4-1.9.4-2.4 0-.9-.3-1.3-.5-1.4-.2.1-.3.4-.3.9-.1.9 0 1.7.4 2.9zm-7.4 14.1c.1 0 .8-.4 2.4-3.1-1.3.7-1.9 1.3-2.3 1.7-.6.6-.6 1-.6 1.2l.2.1h-.1s.1.1.2.1c0 .1.1.1.2 0z" fill="#f94646"/><path d="M35 34v1.5h-3.7v1.6h2.8v1.5h-2.8V42h-1.8v-8zM28.4 36.4c.2.5.2 1 .2 1.6s-.1 1.2-.2 1.7c-.2.5-.4.9-.7 1.3-.7.7-1.6 1-2.8 1H22v-8h2.7c.7 0 1.2.1 1.7.3s.9.5 1.2.8c.4.4.6.8.8 1.3zM26.7 39c.1-.3.1-.6.1-1s0-.8-.1-1.1-.2-.6-.4-.8c-.3-.4-.9-.6-1.5-.6h-1v5.1h.9c.4 0 .8-.1 1-.2.3-.1.5-.3.6-.6.3-.3.4-.5.4-.8zM20.9 35.3c.1.3.2.7.2 1.1 0 .8-.3 1.4-.8 1.8-.5.4-1.3.6-2.2.6h-1.3V42H15v-8h3.1c.4 0 .8 0 1.2.1.4.1.7.2.9.4.3.2.5.5.7.8zm-1.6 1.2c0-.2 0-.3-.1-.5-.1-.1-.1-.2-.2-.3-.2-.1-.6-.2-1.1-.2h-1.1v1.9h1.6c.2 0 .3-.1.4-.1l.3-.3c.2-.2.2-.3.2-.5z"/></svg>