<svg xmlns="http://www.w3.org/2000/svg" viewBox="0 0 50 50"><path d="M34.8 3l8.2 7.8v34.8c0 .8-.7 1.4-1.5 1.4h-33c-.8 0-1.5-.6-1.5-1.4V4.4C7 3.6 7.7 3 8.5 3h26.3z" fill="#fff"/><path fill="#d3d5dd" d="M43 10.8h-8.2V3z"/><path d="M35 33v1.5h-2.2V41h-1.9v-6.5h-2.2V33zM28.2 34.3c.1.3.2.7.2 1.1 0 .8-.3 1.4-.8 1.8-.5.4-1.3.6-2.3.6H24V41h-1.9v-8h3.2c.5 0 .9 0 1.2.1.4.1.7.2 1 .4s.6.5.7.8zm-1.6 1.2c0-.2 0-.3-.1-.5 0-.1-.1-.2-.2-.3-.2-.1-.6-.2-1.1-.2H24v1.9h1.7c.2 0 .3-.1.4-.1l.3-.3c.2-.2.2-.3.2-.5zM21.1 34.3c.2.3.2.7.2 1.1 0 .8-.3 1.4-.8 1.8-.5.4-1.3.6-2.3.6h-1.3V41H15v-8h3.2c.4 0 .8 0 1.2.1.4.1.7.2 1 .4s.5.5.7.8zm-1.6 1.2c0-.2 0-.3-.1-.5-.1-.1-.1-.2-.2-.3-.2-.1-.6-.2-1.1-.2h-1.2v1.9h1.6c.2 0 .3-.1.4-.1l.3-.3c.2-.2.3-.3.3-.5z"/><path d="M25.2 12c1.4-.1 2.7.3 3.8 1.1.9.8 1.4 2 1.3 3.3 0 .9-.2 1.7-.7 2.4-.5.7-1.1 1.3-1.9 1.6-.7.5-1.7.7-2.7.7h-2.7V26h-2.7V12h5.6zm-2.8 6.9h2.3c.7.1 1.5-.2 2.1-.6.5-.5.7-1.1.7-1.8 0-1.5-.9-2.3-2.7-2.3h-2.4v4.7z" fill="#c94a26"/></svg>