<svg xmlns="http://www.w3.org/2000/svg" viewBox="0 0 50 50"><path d="M34.8 3l8.2 7.8v34.8c0 .8-.7 1.4-1.5 1.4h-33c-.8 0-1.5-.6-1.5-1.4V4.4C7 3.6 7.7 3 8.5 3h26.3z" fill="#fff"/><path fill="#d3d5dd" d="M43 10.8h-8.2V3z"/><path d="M34.9 34.9l-1.7.5c-.1-.3-.3-.5-.5-.7s-.5-.3-.9-.3h-.4c-.1 0-.2.1-.4.1-.1.1-.2.1-.3.2-.1.1-.1.2-.1.3s0 .2.1.3.2.2.4.3c.4.2.8.4 1.3.5.7.2 1.3.5 1.8.8.6.4.8.9.8 1.6 0 .8-.3 1.4-.8 1.8-.5.4-1.3.6-2.3.6-.6 0-1.3-.2-1.9-.5-.3-.1-.6-.3-.8-.6-.2-.2-.5-.5-.6-.9l1.6-.6c.1.2.2.4.3.5.1.2.2.3.4.4.1.1.3.2.5.2.2.1.4.1.6.1h.5c.2 0 .3-.1.4-.1l.3-.3c.1-.1.1-.3.1-.4 0-.3-.2-.5-.5-.7s-.7-.4-1.2-.5c-.9-.3-1.6-.6-2-1-.5-.3-.7-.8-.7-1.5 0-.6.3-1.1.8-1.5.6-.4 1.2-.6 2.1-.6.7 0 1.3.2 1.9.5.3.1.5.3.7.6.1.2.3.5.5.9zM28.1 39.5v1.4h-5.6v-7.8h1.9v6.4zM19.4 36.9l2.4 4h-2.1l-1.3-2.4-1.3 2.4H15l2.4-4-2.3-3.8h2.1l1.2 2.2 1.2-2.2h2.1z"/><path d="M18.2 26l4.5-7-4.2-7h3.3l2.3 4.5c.2.4.4.7.4.9.1-.3.3-.7.5-1l2.4-4.4h3.1l-4.3 6.9 4.4 7.1h-3.3l-2.6-4.9c-.1-.2-.2-.4-.3-.7l-.3.6-2.6 5h-3.3z" fill="#158349"/></svg>