<svg xmlns="http://www.w3.org/2000/svg" viewBox="0 0 50 50"><path d="M34.8 3l8.2 7.8v34.8c0 .8-.7 1.4-1.5 1.4h-33c-.8 0-1.5-.6-1.5-1.4V4.4C7 3.6 7.7 3 8.5 3h26.3z" fill="#fff"/><path fill="#d3d5dd" d="M43 10.8h-8.2V3zM24.5 15h5v3h-5zM24.5 9h5v3h-5zM24.5 3h5v3h-5zM29.5 18v4.5c0 2.5-2.2 4.5-5 4.5-1.3 0-2.6-.5-3.5-1.3-.9-.9-1.4-2-1.4-3.2V18h9.9zm-3.3 4.8V22h-3.3v.8c0 .4.2.8.5 1.1.3.3.7.4 1.2.4.8 0 1.6-.7 1.6-1.5z"/><path d="M26.2 22v.8c0 .8-.7 1.5-1.7 1.5-.5 0-.9-.2-1.2-.4-.3-.3-.5-.7-.5-1.1V22h3.4z" fill="#fff"/><path fill="#d3d5dd" d="M19.5 12h5v3h-5zM19.5 6h5v3h-5z"/><path d="M33.8 34.3c.2.3.2.7.2 1.1 0 .8-.3 1.4-.9 1.8-.6.4-1.4.6-2.4.6h-1.4V41h-2v-8h3.4c.5 0 .9 0 1.3.1s.8.2 1 .4c.3.2.6.5.8.8zM32 35.5c0-.2 0-.3-.1-.5-.1-.1-.1-.2-.2-.3-.2-.1-.6-.2-1.2-.2h-1.3v1.9h1.9c.2 0 .3-.1.5-.1l.3-.3c.1-.2.1-.3.1-.5z"/><path d="M31.9 35c.1.1.1.3.1.5s0 .4-.1.5l-.3.3c-.1.1-.3.1-.5.1h-1.9v-1.9h1.3c.5 0 .9.1 1.2.2.1.1.2.2.2.3z" fill="#fff"/><path d="M23.9 33h2v8h-2zM22.7 39.5V41H16v-1.4l4.1-5.1h-3.8V33h6.3v1.3l-4.2 5.2z"/></svg>