<svg xmlns="http://www.w3.org/2000/svg" viewBox="0 0 16 16"><g fill="currentColor"><path d="M14.88 3.24a.547.547 0 00-.36-.25L6.59 1.08a.536.536 0 00-.61.34L2.96 9.1l1.01.37 2.86-7.3 6.89 1.76c-.43 1.33-1.45 4.12-2.44 6.71-.86 2.26-1.35 3.04-2.28 3.19-1.91.27-1.88-2.17-1.88-2.17l-6.1-2.47C.58 11.94 2.7 12.6 2.7 12.6l4.47 2.03s.7.33 1.46.3c2.05-.05 2.77-1.53 3.67-3.92 1.3-3.44 2.62-7.3 2.64-7.34.04-.14.02-.3-.06-.43z"/><path d="M11.27 6.34c.05.01.09.02.14.02.24 0 .45-.16.52-.4a.547.547 0 00-.38-.66l-2.33-.72a.547.547 0 00-.66.38c-.08.29.09.58.38.66l2.33.72zM7.63 7.11c-.09.28.06.59.34.68l2.32.83a.525.525 0 00.68-.34.539.539 0 00-.35-.68l-2.31-.83a.541.541 0 00-.68.34zM7.43 9.02c-.29-.1-.59.05-.68.34-.09.28.06.59.34.68l2.32.82a.525.525 0 00.68-.34.541.541 0 00-.34-.68l-2.32-.82zM7.34 3.96c.33 0 .6.26.6.58 0 .32-.27.58-.6.58-.33 0-.6-.26-.6-.58 0-.32.27-.58.6-.58zM6.5 6.11c.33 0 .6.26.6.58 0 .32-.27.58-.6.58-.33 0-.6-.26-.6-.58 0-.32.27-.58.6-.58zM5.6 8.33c.33 0 .6.26.6.58 0 .32-.27.58-.6.58-.33 0-.6-.26-.6-.58 0-.32.27-.58.6-.58z"/></g></svg>