<svg xmlns="http://www.w3.org/2000/svg" width="24" height="24" viewBox="0 0 24 24"><path d="M12 13.4l-5.5 2.7L1 13.4l5.5-2.7 5.5 2.7z" fill="none" stroke="currentColor" stroke-width="1.3" stroke-linecap="round" stroke-linejoin="round"/><path d="M6.5 22L1 19.3v-5.9l5.5 2.7V22zM6.5 22l5.5-2.7v-5.9l-5.5 2.7V22zM23 13.4l-5.5 2.7-5.5-2.7 5.5-2.7 5.5 2.7z" fill="none" stroke="currentColor" stroke-width="1.3" stroke-linecap="round" stroke-linejoin="round"/><path d="M17.5 22L12 19.3v-5.9l5.5 2.7V22zM17.5 22l5.5-2.7v-5.9l-5.5 2.7V22zM17.5 4.7L12 7.4 6.5 4.7 12 2l5.5 2.7z" fill="none" stroke="currentColor" stroke-width="1.3" stroke-linecap="round" stroke-linejoin="round"/><path d="M12 13.4l-5.5-2.7v-6L12 7.4v6zM12 13.4l5.5-2.7v-6L12 7.4v6z" fill="none" stroke="currentColor" stroke-width="1.3" stroke-linecap="round" stroke-linejoin="round"/></svg>