<?xml version="1.0" standalone="no"?>
<!DOCTYPE svg PUBLIC "-//W3C//DTD SVG 20010904//EN"
 "http://www.w3.org/TR/2001/REC-SVG-20010904/DTD/svg10.dtd">
<svg version="1.0" xmlns="http://www.w3.org/2000/svg"
 width="600.000000pt" height="600.000000pt" viewBox="0 0 600.000000 600.000000"
 preserveAspectRatio="xMidYMid meet">
<metadata>
Created by potrace 1.11, written by Peter Selinger 2001-2013
</metadata>
<g transform="translate(0.000000,600.000000) scale(0.100000,-0.100000)"
fill="#000000" stroke="none">
<path d="M1379 5995 c-2 -2 -31 -6 -64 -9 -33 -3 -71 -8 -85 -11 -14 -2 -38
-7 -55 -11 -49 -9 -184 -53 -234 -76 -152 -70 -277 -190 -346 -333 -37 -76
-83 -225 -101 -325 -3 -14 -9 -41 -14 -60 -10 -39 -45 -258 -54 -335 -3 -27
-8 -70 -11 -95 -36 -305 -42 -1026 -11 -1340 2 -19 7 -75 11 -125 3 -49 8
-101 9 -115 2 -14 7 -56 11 -95 4 -38 8 -77 10 -85 1 -8 6 -42 9 -75 4 -33 9
-71 11 -85 2 -14 7 -43 10 -65 3 -22 8 -53 11 -70 3 -16 7 -41 9 -55 3 -26 22
-139 29 -175 2 -11 7 -40 11 -65 11 -70 13 -76 45 -225 17 -77 33 -151 36
-165 15 -80 139 -526 161 -580 3 -8 7 -19 8 -25 7 -29 103 -285 143 -379 53
-126 169 -359 210 -420 15 -22 31 -48 34 -57 13 -35 163 -222 233 -293 183
-183 343 -248 590 -241 214 6 432 65 701 190 43 20 88 41 99 46 100 46 350
195 530 317 253 172 457 334 770 612 80 71 415 408 506 510 435 483 769 986
916 1380 12 30 28 75 38 99 38 102 67 247 70 356 3 92 0 125 -20 200 -42 161
-153 355 -308 540 -137 164 -449 442 -643 575 -12 8 -66 46 -121 84 -304 212
-765 465 -1128 621 -60 26 -123 53 -140 60 -280 122 -858 301 -1095 340 -19 3
-46 7 -60 10 -14 3 -41 7 -60 10 -19 3 -46 7 -60 10 -14 2 -50 7 -80 11 -30 3
-66 8 -80 10 -32 6 -447 14 -451 9z m1490 -2072 c32 -20 53 -44 73 -82 l28
-53 0 -239 c0 -132 3 -239 8 -240 4 -1 113 -2 242 -3 259 -2 282 -7 338 -66
87 -91 83 -232 -9 -314 -56 -50 -91 -56 -345 -56 l-234 0 0 -234 c0 -267 -6
-297 -71 -358 -63 -59 -157 -75 -234 -39 -51 24 -80 51 -107 104 -20 40 -22
56 -22 284 l-1 243 -237 0 c-265 0 -292 6 -355 71 -96 101 -72 257 51 333 l49
31 226 1 c124 1 235 3 246 3 19 1 20 8 20 244 l1 243 27 47 c30 50 74 88 122
105 50 17 134 6 184 -25z"/>
</g>
</svg>
